<svg xmlns="http://www.w3.org/2000/svg" viewBox="0 0 769.46 204.45"><defs><style>.cls-1{fill:#52b2e3;}.cls-2,.cls-3{fill:#3bbeaa;}.cls-3{font-size:94.97px;font-family:BigJohn, BigJohn;}</style></defs><title>Asset 1</title><g id="Layer_2" data-name="Layer 2"><g id="Layer_2-2" data-name="Layer 2"><path class="cls-1" d="M713.31,39.28c.36.39.83.2,1.24.2q12.18,0,24.36,0h1.56c-.83,1.44-1.56,2.73-2.32,4-17.7,29.88-35.84,59.49-53.75,89.25q-19.21,32-38.53,63.84a4.56,4.56,0,0,1-4.8,2.55,134,134,0,0,0-16.28-.44c-4.36.12-8.71.12-13.07.11a5.13,5.13,0,0,1-2.55-.51c-.68-.38-.83-.77-.38-1.51,3.42-5.55,6.78-11.13,10.17-16.69q27.16-44.52,54.33-89,14.18-23.23,28.31-46.49a11.07,11.07,0,0,1,6.43-5.3Z"/><path class="cls-2" d="M760.35,197.68a11.79,11.79,0,0,1-5.47,1c-8.31,0-16.63,0-24.94,0-.8,0-1.6.08-2.39.12a7.28,7.28,0,0,1-7-4q-4.83-8.15-9.71-16.26Q700.25,161,689.63,143.37a3.81,3.81,0,0,1,0-4.44c5.39-8.65,10.71-17.34,16.05-26a6.54,6.54,0,0,1,.45-.71c1-1.33,2-1.3,2.83.07q25.47,42.3,50.95,84.59c.12.2.28.38.42.57Z"/><path class="cls-1" d="M343.12,92.82c2.27-2.11,4.55-4.12,6.7-6.26A28.92,28.92,0,0,1,368,78.14a35.1,35.1,0,0,1,24.75,6.7c5.54,4.07,8.45,9.76,9.72,16.39a66.72,66.72,0,0,1,.76,12.55c0,10.6,0,21.19,0,31.79,0,4.12.08,8.24.13,12.35,0,.32,0,.64,0,1-.24,3.27-1.52,4.17-4.82,4.09-6-.15-12-.06-18-.07-1,0-1.92,0-2.88,0a3,3,0,0,1-3.29-2.8,14.41,14.41,0,0,1-.15-2.86c.06-10.56.19-21.11.1-31.67,0-3.87.1-7.75-.17-11.62-.29-4.24-1.6-8.07-5.32-10.5a15.3,15.3,0,0,0-13.39-2.14c-5,1.55-8.05,6-8.15,11.52-.05,2.44,0,4.88-.09,7.32-.24,12.63-.08,25.27-.13,37.9a14.46,14.46,0,0,1-.15,2.63,2.31,2.31,0,0,1-2,2,31,31,0,0,1-5.27.17c-5.6.05-11.2,0-16.8,0-3.88,0-4.84-1-4.84-4.91q0-19.08,0-38.15A28.53,28.53,0,0,0,316.36,109c-2.64-6.56-7.82-9-14.72-8.23-6.31.73-10.68,5.55-11.24,12-.41,4.75-.19,9.51-.22,14.26-.07,10.64,0,21.28,0,31.91,0,3.06-.88,3.9-4,3.92q-10.2,0-20.4,0c-3.05,0-4.13-1.07-4.13-4.12q0-17.68,0-35.39,0-19-.07-38v-.83c0-3.38,1.21-4.53,4.6-4.47,5.8.09,11.6.14,17.39,0a21,21,0,0,1,2.86,0c2.93.31,4.28,2,3.85,4.89a3.26,3.26,0,0,0,.05,2c.55,1.15,1.1,1.27,2,.43a36.3,36.3,0,0,1,14.05-8.22c8.21-2.39,16.15-1.14,23.86,2.07A25.94,25.94,0,0,1,342.55,92C342.71,92.22,342.89,92.48,343.12,92.82Z"/><path class="cls-1" d="M0,121.4V84.69c0-.48,0-1,0-1.44a3,3,0,0,1,3.3-3.18c2.87,0,5.75.06,8.63,0,3.92,0,7.84.12,11.75-.17a7.8,7.8,0,0,1,2.14.23,3.15,3.15,0,0,1,2.77,3.49c0,.88-.06,1.76,0,2.64a1.53,1.53,0,0,0,.82,1.38c.58.32.83-.3,1.16-.58,6.91-5.82,14.77-9.26,23.88-9.11A32.53,32.53,0,0,1,80.85,91.32c.71.93,1.13.87,1.94.22,2.8-2.27,5.21-5,8-7.22,6.42-5.12,13.81-6.88,21.9-6.21a36.09,36.09,0,0,1,17.35,6c6.29,4.22,9.71,10.2,10.84,17.61a97.77,97.77,0,0,1,.75,14.1c.06,6.8.22,13.6.1,20.39-.1,6,0,11.91-.09,17.87a38.32,38.32,0,0,1,0,5.14c-.41,2.92-1.62,3.89-4.58,3.78-6.52-.24-13-.29-19.54,0-3,.14-4.65-.79-4.81-3.92s.07-6.22,0-9.34c0-9.75.08-19.51-.08-29.27,0-3.21.24-6.47-.61-9.66a14,14,0,0,0-11.95-10.15c-5.47-.5-10,1.15-13.13,5.88-1.78,2.73-2.21,5.91-2.25,9.08q-.26,20.5,0,41c0,.64,0,1.28,0,1.92-.1,3.18-1.43,4.48-4.64,4.45-2.52,0-5-.2-7.55-.22-3.87,0-7.75,0-11.62.19-2.87.17-4.28-1-4.43-3.94s0-5.75,0-8.63c0-.52.08-1,.08-1.55,0-7.32.1-14.64,0-22-.08-4.16,0-8.31-.17-12.47-.51-10.51-11.87-17.15-21.1-12.31a12.1,12.1,0,0,0-6.49,9.65c-.57,4.13-.28,8.3-.3,12.45-.05,11.12,0,22.24.05,33.36v1c0,3.11-1.37,4.52-4.48,4.45-2.44,0-4.87-.18-7.31-.17-4.24,0-8.48.06-12.72.06-3,0-4-1.07-4-4.07V121.4Z"/><path class="cls-1" d="M173.11,204.43h-14c-1.53,0-1.54,0-1-1.48,1.91-5.07,4.56-9.77,7-14.57q8.76-17.19,17.89-34.2a8.08,8.08,0,0,0-.11-8.41q-11.64-20.55-23.2-41.13c-4.18-7.42-8.29-14.87-12.48-22.28-.56-1-.39-1.45.61-1.85a7,7,0,0,1,3-.57c6.08.35,12.15,0,18.23.16,1.84,0,3.68,0,5.52,0a6.67,6.67,0,0,1,6.55,4c3.45,6.67,7.05,13.27,10.67,19.85,2.65,4.83,5.33,9.65,8,14.48a15.53,15.53,0,0,0,1.75,2.42c.5.62.72.69,1.12-.09,2.39-4.74,4.86-9.45,7.1-14.26C213.4,98.65,217,90.86,220.4,83a4.38,4.38,0,0,1,4.48-2.89c9.2.08,18.4,0,27.6,0,1.36,0,1.47.11,1.2,1.43a12.91,12.91,0,0,1-1.53,4c-4.08,6.83-7.47,14-11.15,21.08q-20.62,39.58-41.5,79c-2.74,5.15-5.44,10.33-8.16,15.48-.28.53-.57,1.06-.88,1.57a3.4,3.4,0,0,1-3.19,1.72C182.55,204.41,177.83,204.43,173.11,204.43Z"/><path class="cls-1" d="M414.41,122.09c.81-16.43,7.73-29.31,22.43-37.33a57.87,57.87,0,0,1,23.28-6.86c15-1.19,28.29,3.17,39.87,12.59a36.53,36.53,0,0,1,13.42,24.38,45.24,45.24,0,0,1-3,24.07c-3.5,8.21-9.48,14.21-17.07,18.72a54.89,54.89,0,0,1-22.75,7.21,60.22,60.22,0,0,1-26.23-2.77c-13.77-4.74-23.24-14-28-27.82A37.06,37.06,0,0,1,414.41,122.09Zm30.53-.46a21.39,21.39,0,0,0,.3,3.84c.86,5.3,3.28,9.64,8,12.5a21.44,21.44,0,0,0,14.07,2.8c7-.85,12.24-4.36,15-11,2.49-6,1.91-12-.6-17.8a15.43,15.43,0,0,0-9-8.36,22.44,22.44,0,0,0-5.93-1.38c-4.6-.47-9,0-13,2.54C447.5,108.68,445.12,114.59,444.94,121.63Z"/><path class="cls-1" d="M528.51,121.52V84.21c0-2.79.86-3.67,3.64-3.67,5.92,0,11.84,0,17.76,0a24.84,24.84,0,0,1,3.34,0c2.1.28,3.13,1.37,3.14,3.49,0,.8-.08,1.6-.08,2.4a1.66,1.66,0,0,0,.87,1.48c.55.31.88-.19,1.25-.45,3.35-2.32,6.47-5,10.24-6.64,8.5-3.68,17.16-3.59,25.87-.87A33.93,33.93,0,0,1,612.36,92.3a26.72,26.72,0,0,1,4.72,12.77,92.44,92.44,0,0,1,.35,10.65c.12,12,.05,24.08.05,36.11a51.78,51.78,0,0,1-.14,7.78,3,3,0,0,1-2.77,2.83c-1.64.34-3.26,0-4.9,0H595a16,16,0,0,1-3.46,0A2.77,2.77,0,0,1,589,159.8a22.71,22.71,0,0,1-.13-4.66c.29-9.4.22-18.79.06-28.18-.06-4.19,0-8.39-.34-12.58-.6-6.84-6.41-13.41-13.16-14.53a13.12,13.12,0,0,0-9,1.92c-5.18,3-8.92,7.22-10,13.36a16.8,16.8,0,0,0-.19,2.75q0,20,.06,40.07c0,.24,0,.48,0,.72-.11,2.81-1.2,4-4,3.87-5.15-.2-10.31-.11-15.46-.13-1.84,0-3.67.09-5.5,0s-2.82-1-2.83-3c0-8.68,0-17.36,0-26,0-4,0-7.92,0-11.88Z"/><path class="cls-2" d="M652.19,113.73c-1.24-2-2.44-4-3.63-6Q628.88,75.1,609.23,42.45c-.34-.58-1.15-1.1-.55-2a1.69,1.69,0,0,1,1.6-.94c7,0,13.92.06,20.87,0A4,4,0,0,1,635,41.65q4.24,7.1,8.55,14.16,9.91,16.41,19.88,32.8a5.71,5.71,0,0,1,0,6.67c-3.68,5.85-7.18,11.82-10.75,17.73C652.53,113.22,652.4,113.41,652.19,113.73Z"/><path class="cls-2" d="M669.61,47.3V83.85a10.37,10.37,0,0,1-2.1-2.33c-.57-1.07-8.58-13.56-8.58-13.56L643.36,41.82s-.79-3.08,1.52-1.31C644.88,40.51,653.93,46.61,669.61,47.3Z"/><path class="cls-1" d="M669.61,47.3V83.85a10,10,0,0,0,2-2.33c.53-1.07,8-13.56,8-13.56l14.51-26.14s.74-3.08-1.41-1.31C692.67,40.51,684.23,46.61,669.61,47.3Z"/><path class="cls-2" d="M682.9,190.16V150.32a11.38,11.38,0,0,1,2.3,2.54c.62,1.16,9.34,14.78,9.34,14.78l17,28.5s.86,3.35-1.66,1.42C709.86,197.56,700,190.91,682.9,190.16Z"/><path class="cls-1" d="M682.9,190.16V150.32a11.19,11.19,0,0,0-2.14,2.54c-.58,1.16-8.71,14.78-8.71,14.78l-15.82,28.5s-.81,3.35,1.54,1.42C657.77,197.56,667,190.91,682.9,190.16Z"/><text class="cls-3" transform="translate(720.74 79.49)">2</text></g></g></svg>